<svg xmlns="http://www.w3.org/2000/svg" xmlns:xlink="http://www.w3.org/1999/xlink" zoomAndPan="magnify" preserveAspectRatio="xMidYMid meet" version="1.0" viewBox="81.45 152.43 211.85 77.13"><defs><g/></defs><g fill="#ffffff" fill-opacity="1"><g transform="translate(77.464498, 229.499985)"><g><path d="M 39.675781 -36.476562 C 38.636719 -38.238281 38.078125 -38.957031 36.558594 -40.078125 L 56.636719 -74.394531 C 48.398438 -79.273438 40.316406 -77.195312 35.835938 -69.515625 L 21.4375 -44.957031 L 21.4375 -77.035156 C 11.757812 -77.035156 4 -69.914062 4 -61.035156 L 4 -0.480469 C 13.597656 -0.480469 21.4375 -7.597656 21.4375 -16.480469 L 21.4375 -29.039062 C 22.398438 -28.957031 23.4375 -29.117188 24.398438 -29.277344 L 37.675781 -7.199219 C 42.238281 0.398438 52.796875 2.078125 60.234375 -2.398438 Z M 39.675781 -36.476562 "/></g></g></g><g fill="#ffffff" fill-opacity="1"><g transform="translate(159.377794, 229.499985)"><g><path d="M 5.359375 -9.839844 C 6.480469 -7.441406 8.320312 -5.28125 10.480469 -3.601562 C 13.199219 -1.601562 16.480469 -0.320312 20.160156 0 L 45.117188 0 C 51.757812 -1.199219 57.515625 -6.878906 57.515625 -14.558594 L 57.597656 -26 C 57.597656 -30.878906 59.4375 -42.878906 47.195312 -42.878906 L 31.519531 -42.878906 C 31.519531 -34.957031 35.757812 -30.078125 42.476562 -28.878906 C 42.476562 -28.398438 42.398438 -27.839844 42.398438 -27.359375 L 42.398438 -16 L 25.359375 -16 C 22.796875 -16 21.199219 -17.679688 20.878906 -20.160156 L 20.878906 -48.15625 C 20.796875 -48.398438 20.796875 -48.71875 20.796875 -48.957031 L 20.796875 -54.078125 C 20.796875 -54.398438 20.796875 -54.636719 20.878906 -54.796875 C 21.199219 -57.117188 23.277344 -58.875 25.519531 -59.117188 L 36.398438 -59.117188 L 36.398438 -57.195312 C 44.878906 -57.195312 50.316406 -63.117188 50.316406 -70.957031 L 50.316406 -75.195312 L 18.160156 -75.195312 C 9.757812 -74.714844 4 -68.554688 4 -59.117188 C 4 -59.117188 4 -59.035156 4 -58.957031 L 4 -16.238281 C 4 -13.917969 4.480469 -11.839844 5.359375 -9.839844 Z M 5.359375 -9.839844 "/></g></g></g><g fill="#ffffff" fill-opacity="1"><g transform="translate(241.211096, 229.499985)"><g><path d="M 21.597656 -75.117188 C 11.917969 -75.117188 4 -67.914062 4 -58.957031 L 4 -0.160156 C 4 -0.078125 4 0 4 0 L 35.917969 0 C 44.878906 0 52.078125 -7.839844 52.078125 -17.597656 L 21.597656 -17.597656 Z M 21.597656 -75.117188 "/></g></g></g></svg>