<svg xmlns="http://www.w3.org/2000/svg" xmlns:xlink="http://www.w3.org/1999/xlink" zoomAndPan="magnify" preserveAspectRatio="xMidYMid meet" version="1.0" viewBox="94.7 281.02 185.38 67.48"><defs><g/></defs><g fill="#812c13" fill-opacity="1"><g transform="translate(91.214643, 348.44031)"><g><path d="M 34.71875 -31.917969 C 33.808594 -33.457031 33.320312 -34.089844 31.988281 -35.070312 L 49.558594 -65.097656 C 42.347656 -69.367188 35.277344 -67.546875 31.359375 -60.828125 L 18.757812 -39.339844 L 18.757812 -67.40625 C 10.289062 -67.40625 3.5 -61.179688 3.5 -53.40625 L 3.5 -0.421875 C 11.898438 -0.421875 18.757812 -6.648438 18.757812 -14.417969 L 18.757812 -25.410156 C 19.597656 -25.339844 20.507812 -25.480469 21.347656 -25.617188 L 32.96875 -6.300781 C 36.957031 0.351562 46.199219 1.820312 52.707031 -2.101562 Z M 34.71875 -31.917969 "/></g></g></g><g fill="#812c13" fill-opacity="1"><g transform="translate(162.89128, 348.44031)"><g><path d="M 4.691406 -8.609375 C 5.667969 -6.511719 7.28125 -4.621094 9.167969 -3.148438 C 11.550781 -1.398438 14.417969 -0.28125 17.640625 0 L 39.480469 0 C 45.289062 -1.050781 50.328125 -6.019531 50.328125 -12.738281 L 50.398438 -22.75 C 50.398438 -27.019531 52.007812 -37.519531 41.296875 -37.519531 L 27.578125 -37.519531 C 27.578125 -30.589844 31.289062 -26.320312 37.167969 -25.269531 C 37.167969 -24.847656 37.097656 -24.359375 37.097656 -23.9375 L 37.097656 -14 L 22.1875 -14 C 19.949219 -14 18.550781 -15.46875 18.269531 -17.640625 L 18.269531 -42.136719 C 18.199219 -42.347656 18.199219 -42.628906 18.199219 -42.839844 L 18.199219 -47.316406 C 18.199219 -47.597656 18.199219 -47.808594 18.269531 -47.949219 C 18.550781 -49.976562 20.371094 -51.519531 22.328125 -51.726562 L 31.847656 -51.726562 L 31.847656 -50.046875 C 39.269531 -50.046875 44.027344 -55.226562 44.027344 -62.085938 L 44.027344 -65.796875 L 15.890625 -65.796875 C 8.539062 -65.378906 3.5 -59.988281 3.5 -51.726562 C 3.5 -51.726562 3.5 -51.65625 3.5 -51.589844 L 3.5 -14.210938 C 3.5 -12.179688 3.917969 -10.359375 4.691406 -8.609375 Z M 4.691406 -8.609375 "/></g></g></g><g fill="#812c13" fill-opacity="1"><g transform="translate(234.497925, 348.44031)"><g><path d="M 18.898438 -65.726562 C 10.429688 -65.726562 3.5 -59.429688 3.5 -51.589844 L 3.5 -0.140625 C 3.5 -0.0703125 3.5 0 3.5 0 L 31.429688 0 C 39.269531 0 45.570312 -6.859375 45.570312 -15.398438 L 18.898438 -15.398438 Z M 18.898438 -65.726562 "/></g></g></g></svg>